<?xml version="1.0" encoding="UTF-8" standalone="no"?>
<svg
   width="275"
   height="265"
   viewBox="0 0 275 265"
   enable-background="new 0 0 275 265"
   xml:space="preserve"
   version="1.1"
   id="svg374"
   sodipodi:docname="Tshwane University of Technology.svg"
   inkscape:version="1.1.1 (3bf5ae0d25, 2021-09-20)"
   xmlns:inkscape="http://www.inkscape.org/namespaces/inkscape"
   xmlns:sodipodi="http://sodipodi.sourceforge.net/DTD/sodipodi-0.dtd"
   xmlns="http://www.w3.org/2000/svg"
   xmlns:svg="http://www.w3.org/2000/svg"><defs
   id="defs378" /><sodipodi:namedview
   id="namedview376"
   pagecolor="#ffffff"
   bordercolor="#666666"
   borderopacity="1.0"
   inkscape:pageshadow="2"
   inkscape:pageopacity="0.0"
   inkscape:pagecheckerboard="0"
   showgrid="false"
   inkscape:zoom="2.2200484"
   inkscape:cx="111.03361"
   inkscape:cy="155.17679"
   inkscape:window-width="1920"
   inkscape:window-height="1017"
   inkscape:window-x="-8"
   inkscape:window-y="-8"
   inkscape:window-maximized="1"
   inkscape:current-layer="g372" />
<g
   id="g372">
	
	
	
	
	
	
	
	
	
	
	
	
	
	
	
	
	
	
	
	
	
	
	
	
	
	
	
	
	
	
	
	
	
	
	
	
	
	
	
	
	
	
	
	
	
	
	
	
	
	
	
	<g
   id="g1495"
   transform="matrix(1.7004034,0,0,1.7004034,-98.046746,-87.545122)"><polygon
     fill="#e31837"
     points="108.6,30.3 132.8,39.9 132.8,33.4 108.6,18.6 "
     id="polygon12"
     transform="translate(1.2740385,53.509615)" /><polygon
     fill="#e31837"
     points="166.3,30.3 142.4,39.7 142.4,33.4 166.3,18.7 "
     id="polygon14"
     transform="translate(1.2740385,53.509615)" /><polygon
     fill="#fdb913"
     points="97.5,49 132.6,61.1 132.6,44.5 97.5,30.4 "
     id="polygon16"
     transform="translate(1.2740385,53.509615)" /><polygon
     fill="#005596"
     points="177.5,49.1 142.5,61 142.5,44.4 177.5,30.6 "
     id="polygon18"
     transform="translate(1.2740385,53.509615)" /><polygon
     fill="#005596"
     points="80.6,47.4 80.6,84.5 132.7,65.6 "
     id="polygon20"
     transform="translate(1.2740385,53.509615)" /><polygon
     fill="#fdb913"
     points="193.9,47.4 193.9,84.5 142.6,65.6 "
     id="polygon22"
     transform="translate(1.2740385,53.509615)" /><rect
     x="129.57404"
     y="125.70961"
     fill="#e31837"
     width="18.200001"
     height="49.400002"
     id="rect24" /><polygon
     fill="#e31837"
     points="100.7,111.3 122.4,120.4 122.4,74.2 100.7,82.1 "
     id="polygon26"
     transform="translate(1.2740385,53.509615)" /><polygon
     fill="#e31837"
     points="173.3,111.3 151.6,120.4 151.6,74.2 173.3,82.1 "
     id="polygon28"
     transform="translate(1.2740385,53.509615)" /><g
     id="g36"
     transform="translate(1.2740385,53.509615)">
		<path
   fill="#005596"
   d="m 200.9,22 c 10.2,12.2 16.7,30.2 16.7,49 0,44.9 -36.1,80.4 -80.2,80.4 -44.2,0 -80.5,-35.6 -80.5,-80.5 0,-18.5 6,-35 16.8,-48.8 -4.9,8 -6.7,11.6 -9.6,22.2 -1.9,7.2 -2.3,15.1 -2.3,22.5 1.1,17.1 6.2,28.2 15.4,42 13.7,18.1 34.8,29.9 60.1,29.9 42,0 75,-33 75.6,-74.3 C 212.8,48.8 209,34.6 200.9,22"
   id="path30" />
		
		
	</g><polygon
     fill="#e31837"
     points="108.6,30.3 132.8,39.9 132.8,33.4 108.6,18.6 "
     id="polygon136"
     transform="translate(1.2740385,53.509615)" /><polygon
     fill="#e31837"
     points="166.3,30.3 142.4,39.7 142.4,33.4 166.3,18.7 "
     id="polygon138"
     transform="translate(1.2740385,53.509615)" /><polygon
     fill="#fdb913"
     points="97.5,49 132.6,61.1 132.6,44.5 97.5,30.4 "
     id="polygon140"
     transform="translate(1.2740385,53.509615)" /><polygon
     fill="#005596"
     points="177.5,49.1 142.5,61 142.5,44.4 177.5,30.6 "
     id="polygon142"
     transform="translate(1.2740385,53.509615)" /><polygon
     fill="#005596"
     points="80.6,47.4 80.6,84.5 132.7,65.6 "
     id="polygon144"
     transform="translate(1.2740385,53.509615)" /><polygon
     fill="#fdb913"
     points="193.9,47.4 193.9,84.5 142.6,65.6 "
     id="polygon146"
     transform="translate(1.2740385,53.509615)" /><rect
     x="129.57404"
     y="125.70961"
     fill="#e31837"
     width="18.200001"
     height="49.400002"
     id="rect148" /><polygon
     fill="#e31837"
     points="100.7,111.3 122.4,120.4 122.4,74.2 100.7,82.1 "
     id="polygon150"
     transform="translate(1.2740385,53.509615)" /><polygon
     fill="#e31837"
     points="173.3,111.3 151.6,120.4 151.6,74.2 173.3,82.1 "
     id="polygon152"
     transform="translate(1.2740385,53.509615)" /><g
     id="g160"
     transform="translate(1.2740385,53.509615)">
		<path
   fill="#005596"
   d="m 200.9,22 c 10.2,12.2 16.7,30.2 16.7,49 0,44.9 -36.1,80.4 -80.2,80.4 -44.2,0 -80.5,-35.6 -80.5,-80.5 0,-18.5 6,-35 16.8,-48.8 -4.9,8 -6.7,11.6 -9.6,22.2 -1.9,7.2 -2.3,15.1 -2.3,22.5 1.1,17.1 6.2,28.2 15.4,42 13.7,18.1 34.8,29.9 60.1,29.9 42,0 75,-33 75.6,-74.3 C 212.8,48.8 209,34.6 200.9,22"
   id="path154" />
		
		
	</g><g
     id="g256">
		
		
		
		
		
		
		
		
		
		
		
		
		
		
		
		
		
		<path
   fill="#005596"
   d="m 127.57404,64.809615 c 0,-6.2 5,-11.3 11.3,-11.3 6.2,0 11.3,5 11.3,11.3 0,6.2 -5,11.3 -11.3,11.3 -6.2,-0.1 -11.3,-5.1 -11.3,-11.3"
   id="path254" />
	</g><polygon
     fill="#e31837"
     points="108.6,30.3 132.8,39.9 132.8,33.4 108.6,18.6 "
     id="polygon258"
     transform="translate(1.2740385,53.509615)" /><polygon
     fill="#e31837"
     points="166.3,30.3 142.4,39.7 142.4,33.4 166.3,18.7 "
     id="polygon260"
     transform="translate(1.2740385,53.509615)" /><polygon
     fill="#fdb913"
     points="97.5,49 132.6,61.1 132.6,44.5 97.5,30.4 "
     id="polygon262"
     transform="translate(1.2740385,53.509615)" /><polygon
     fill="#005596"
     points="177.5,49.1 142.5,61 142.5,44.4 177.5,30.6 "
     id="polygon264"
     transform="translate(1.2740385,53.509615)" /><polygon
     fill="#005596"
     points="80.6,47.4 80.6,84.5 132.7,65.6 "
     id="polygon266"
     transform="translate(1.2740385,53.509615)" /><polygon
     fill="#fdb913"
     points="193.9,47.4 193.9,84.5 142.6,65.6 "
     id="polygon268"
     transform="translate(1.2740385,53.509615)" /><rect
     x="129.57404"
     y="125.70961"
     fill="#e31837"
     width="18.200001"
     height="49.400002"
     id="rect270" /><polygon
     fill="#e31837"
     points="100.7,111.3 122.4,120.4 122.4,74.2 100.7,82.1 "
     id="polygon272"
     transform="translate(1.2740385,53.509615)" /><polygon
     fill="#e31837"
     points="173.3,111.3 151.6,120.4 151.6,74.2 173.3,82.1 "
     id="polygon274"
     transform="translate(1.2740385,53.509615)" /><g
     id="g282"
     transform="translate(1.2740385,53.509615)">
		<path
   fill="#005596"
   d="m 200.9,22 c 10.2,12.2 16.7,30.2 16.7,49 0,44.9 -36.1,80.4 -80.2,80.4 -44.2,0 -80.5,-35.6 -80.5,-80.5 0,-18.5 6,-35 16.8,-48.8 -4.9,8 -6.7,11.6 -9.6,22.2 -1.9,7.2 -2.3,15.1 -2.3,22.5 1.1,17.1 6.2,28.2 15.4,42 13.7,18.1 34.8,29.9 60.1,29.9 42,0 75,-33 75.6,-74.3 C 212.8,48.8 209,34.6 200.9,22"
   id="path276" />
		
		
	</g></g>
	
	
	
	
	
	
	
	
	
	
</g>
</svg>
